# xmcd
#
# Track frame offsets:
# 182
# 19200
# 43155
#
# Disc length: 788 seconds
#
#
# Revision: 3
# Processed by: cddbd v1.5PL3 Copyright (c) Steve Scherf et al.
# Submitted via: FreeRIP 2.52 
#
DISCID=20031203
DTITLE=Headless Chickens - Choppers
DYEAR=1994
DGENRE=Alternative
TTITLE0=Choppers (Helibator mix)
TTITLE1=Million $ Dream
TTITLE2=Choppers
EXTD=
EXTT0=
EXTT1=
EXTT2=
PLAYORDER=
